Coordinates
version=1
nRows=7
nColumns=33
inDegrees=yes

Units are S.I. units (second, meters, Newtons, ...)
Angles are in degrees.

endheader
time	ground_thorax_rot_x	ground_thorax_rot_y	ground_thorax_rot_z	ground_thorax_tx	ground_thorax_ty	ground_thorax_tz	clav_prot_r	clav_elev_r	scapula_abduction_r	scapula_elevation_r	scapula_upward_rot_r	scapula_winging_r	shoulder_elv_r	plane_of_elev_r	axial_rot_r	elbow_flexion_r	pro_sup_r	wrist_flex_r	wrist_dev_r	clav_prot_l	clav_elev_l	scapula_abduction_l	scapula_elevation_l	scapula_upward_rot_l	scapula_winging_l	shoulder_elv_l	plane_of_elev_l	axial_rot_l	elbow_flexion_l	pro_sup_l	wrist_flex_l	wrist_dev_l
      5.97000000	     37.91642690	      7.50230898	     13.76849988	   -171.87658140	    822.96484936	      8.78060554	     16.74554306	     40.15665326	     43.17395367	     45.00000000	    -38.24868206	  -1886.94093106	  -1727.20563174	     33.92360377	     22.07610280	   1452.84399176	     34.21993363	     19.08618577	      6.61026063	      9.45935701	    -45.00000000	    -42.59278164	     45.00000000	    -25.29245011	   3336.33288402	  -2807.14360644	     23.29563198	    -21.54019945	   -713.04620809	     13.85897777	     12.03275809	    -20.83793982
      5.98000000	     37.98366195	      7.71415449	     13.87733842	   -176.89261240	    825.03498060	      8.76791880	     16.67268294	     40.02449020	     42.93803223	     45.00000000	    -39.13942559	  -1887.16230055	  -1726.82902994	     34.04239180	     22.16492877	   1452.94711898	     36.48222771	     19.16935326	      6.50191021	      9.42538522	    -45.00000000	    -42.18381395	     45.00000000	    -26.36720046	   3336.55287013	  -2806.67241178	     23.08149002	    -22.71045218	   -712.78440678	     12.40786993	     11.73401400	    -20.82123456
      5.99000000	     38.07050403	      7.91676660	     14.01051735	   -181.84147253	    826.97531934	      8.75337942	     16.64674101	     39.84756442	     42.81173980	     45.00000000	    -39.52389649	  -1887.41426677	  -1726.69048106	     33.85594220	     23.19538312	   1453.20081111	     38.80326352	     18.94009000	      5.97361722	      9.53169475	    -45.00000000	    -41.93154649	     45.00000000	    -27.15622362	   3337.00059786	  -2806.39751792	     23.00008885	    -23.44178929	   -712.73016087	     11.56403538	     11.75802329	    -20.86799848
      6.00000000	     38.15447883	      8.12302380	     14.14095864	   -186.73805010	    828.79213817	      8.74062207	     16.64178641	     39.64070513	     42.59557377	     45.00000000	    -40.39200369	  -1887.61681443	  -1726.36857561	     33.91239357	     23.70096683	   1453.47893020	     41.52555690	     18.85387149	      5.67944186	      9.58480384	    -45.00000000	    -41.59478054	     45.00000000	    -28.27668342	   3337.29719045	  -2806.04512243	     22.95566568	    -23.85558257	   -712.66938565	     11.00772121	     11.59098445	    -20.94725671
      6.01000000	     38.21849702	      8.28775364	     14.15221325	   -191.58182846	    830.49358981	      8.73475678	     16.53186913	     39.34512509	     42.39200848	     45.00000000	    -41.60387337	  -1887.88143258	  -1726.07152127	     34.22849197	     23.07455620	   1453.68270005	     45.57931632	     19.14030053	      5.74915396	      9.50416130	    -45.00000000	    -41.29985026	     45.00000000	    -29.30531121	   3337.53723151	  -2805.67515601	     22.93639258	    -23.91820373	   -712.66960495	     10.67138770	     11.23023444	    -20.96709236
      6.02000000	     38.38729249	      8.38998121	     14.07530316	   -196.40306614	    832.09612911	      8.73890263	     16.56718872	     39.12858292	     42.31966449	     45.00000000	    -41.12833505	  -1888.33781322	  -1726.37751112	     33.97854828	     26.68425251	   1454.01256036	     47.91745109	     18.35405006	      4.89310576	      9.74787928	    -45.00000000	    -41.41423679	     45.00000000	    -29.45733902	   3338.20722767	  -2805.73092580	     22.86855957	    -24.58249320	   -712.74161114	     10.82688902	     11.57899987	    -21.09566374
      6.03000000	     38.45591413	      8.70946798	     14.33824808	   -201.17162169	    833.59670734	      8.75258722	     16.46956717	     39.05914928	     42.04361281	     45.00000000	    -42.95660164	  -1888.23643861	  -1725.65403383	     34.11819634	     24.80959557	   1454.48848491	     52.61319762	     18.72350956	      5.04802825	      9.67467068	    -45.00000000	    -40.65163894	     45.00000000	    -31.67925040	   3338.14212748	  -2805.11174312	     22.74235380	    -25.10235197	   -712.43812659	     10.73364432	     10.64673993	    -21.21813810
